<mxfile host="app.diagrams.net" agent="Mozilla/5.0 (Windows NT 10.0; Win64; x64) AppleWebKit/537.36 (KHTML, like Gecko) Chrome/138.0.0.0 Safari/537.36" version="28.0.4">
  <diagram name="Page-1" id="EZFhYtdA0sctEwti41pZ">
    <mxGraphModel dx="1042" dy="527" grid="1" gridSize="10" guides="1" tooltips="1" connect="1" arrows="1" fold="1" page="1" pageScale="1" pageWidth="827" pageHeight="1169" math="0" shadow="0">
      <root>
        <mxCell id="0" />
        <mxCell id="1" parent="0" />
        <mxCell id="s-gAPwUdkaGMTo218kio-8" style="edgeStyle=orthogonalEdgeStyle;rounded=0;orthogonalLoop=1;jettySize=auto;html=1;exitX=1;exitY=0.5;exitDx=0;exitDy=0;entryX=0;entryY=0.5;entryDx=0;entryDy=0;" edge="1" parent="1" source="s-gAPwUdkaGMTo218kio-1" target="s-gAPwUdkaGMTo218kio-4">
          <mxGeometry relative="1" as="geometry" />
        </mxCell>
        <mxCell id="s-gAPwUdkaGMTo218kio-1" value="Task Submission" style="rounded=0;whiteSpace=wrap;html=1;" vertex="1" parent="1">
          <mxGeometry x="30" y="190" width="120" height="60" as="geometry" />
        </mxCell>
        <mxCell id="s-gAPwUdkaGMTo218kio-15" style="edgeStyle=orthogonalEdgeStyle;rounded=0;orthogonalLoop=1;jettySize=auto;html=1;exitX=0.5;exitY=1;exitDx=0;exitDy=0;entryX=0.5;entryY=0;entryDx=0;entryDy=0;endArrow=none;endFill=0;" edge="1" parent="1" source="s-gAPwUdkaGMTo218kio-2" target="s-gAPwUdkaGMTo218kio-7">
          <mxGeometry relative="1" as="geometry" />
        </mxCell>
        <mxCell id="s-gAPwUdkaGMTo218kio-2" value="Nudging Agent (Carbon Budget Tracker)" style="rounded=0;whiteSpace=wrap;html=1;" vertex="1" parent="1">
          <mxGeometry x="200" y="300" width="120" height="60" as="geometry" />
        </mxCell>
        <mxCell id="s-gAPwUdkaGMTo218kio-9" style="edgeStyle=orthogonalEdgeStyle;rounded=0;orthogonalLoop=1;jettySize=auto;html=1;exitX=0.5;exitY=1;exitDx=0;exitDy=0;entryX=0.5;entryY=0;entryDx=0;entryDy=0;" edge="1" parent="1" source="s-gAPwUdkaGMTo218kio-3" target="s-gAPwUdkaGMTo218kio-4">
          <mxGeometry relative="1" as="geometry" />
        </mxCell>
        <mxCell id="s-gAPwUdkaGMTo218kio-3" value="ElectricictyMap + Bedrock API" style="rounded=0;whiteSpace=wrap;html=1;" vertex="1" parent="1">
          <mxGeometry x="200" y="90" width="120" height="60" as="geometry" />
        </mxCell>
        <mxCell id="s-gAPwUdkaGMTo218kio-10" style="edgeStyle=orthogonalEdgeStyle;rounded=0;orthogonalLoop=1;jettySize=auto;html=1;exitX=1;exitY=0.5;exitDx=0;exitDy=0;entryX=0;entryY=0.5;entryDx=0;entryDy=0;" edge="1" parent="1" source="s-gAPwUdkaGMTo218kio-4" target="s-gAPwUdkaGMTo218kio-6">
          <mxGeometry relative="1" as="geometry" />
        </mxCell>
        <mxCell id="s-gAPwUdkaGMTo218kio-14" style="edgeStyle=orthogonalEdgeStyle;rounded=0;orthogonalLoop=1;jettySize=auto;html=1;exitX=0.5;exitY=1;exitDx=0;exitDy=0;entryX=0.5;entryY=0;entryDx=0;entryDy=0;" edge="1" parent="1" source="s-gAPwUdkaGMTo218kio-4" target="s-gAPwUdkaGMTo218kio-2">
          <mxGeometry relative="1" as="geometry" />
        </mxCell>
        <mxCell id="s-gAPwUdkaGMTo218kio-4" value="Lang chain based Scheduler agent" style="rounded=0;whiteSpace=wrap;html=1;" vertex="1" parent="1">
          <mxGeometry x="200" y="190" width="120" height="60" as="geometry" />
        </mxCell>
        <mxCell id="s-gAPwUdkaGMTo218kio-5" value="Dashboard&amp;nbsp;" style="rounded=0;whiteSpace=wrap;html=1;" vertex="1" parent="1">
          <mxGeometry x="540" y="190" width="120" height="60" as="geometry" />
        </mxCell>
        <mxCell id="s-gAPwUdkaGMTo218kio-11" style="edgeStyle=orthogonalEdgeStyle;rounded=0;orthogonalLoop=1;jettySize=auto;html=1;exitX=1;exitY=0.5;exitDx=0;exitDy=0;entryX=0;entryY=0.5;entryDx=0;entryDy=0;" edge="1" parent="1" source="s-gAPwUdkaGMTo218kio-6" target="s-gAPwUdkaGMTo218kio-5">
          <mxGeometry relative="1" as="geometry" />
        </mxCell>
        <mxCell id="s-gAPwUdkaGMTo218kio-13" style="edgeStyle=orthogonalEdgeStyle;rounded=0;orthogonalLoop=1;jettySize=auto;html=1;exitX=0.5;exitY=1;exitDx=0;exitDy=0;entryX=1;entryY=0.5;entryDx=0;entryDy=0;" edge="1" parent="1" source="s-gAPwUdkaGMTo218kio-6" target="s-gAPwUdkaGMTo218kio-7">
          <mxGeometry relative="1" as="geometry" />
        </mxCell>
        <mxCell id="s-gAPwUdkaGMTo218kio-6" value="Optimizing Task" style="rounded=0;whiteSpace=wrap;html=1;" vertex="1" parent="1">
          <mxGeometry x="370" y="190" width="120" height="60" as="geometry" />
        </mxCell>
        <mxCell id="s-gAPwUdkaGMTo218kio-7" value="Prometheus + Kepler Monitoring" style="rounded=0;whiteSpace=wrap;html=1;" vertex="1" parent="1">
          <mxGeometry x="200" y="400" width="120" height="60" as="geometry" />
        </mxCell>
      </root>
    </mxGraphModel>
  </diagram>
</mxfile>
